<?xml version="1.0" standalone="no"?>
<!DOCTYPE svg PUBLIC "-//W3C//DTD SVG 20010904//EN"
 "http://www.w3.org/TR/2001/REC-SVG-20010904/DTD/svg10.dtd">
<svg version="1.0" xmlns="http://www.w3.org/2000/svg"
 width="500.000000pt" height="500.000000pt" viewBox="0 0 500.000000 500.000000"
 preserveAspectRatio="xMidYMid meet">

<g transform="translate(0.000000,500.000000) scale(0.100000,-0.100000)"
fill="#000000" stroke="none">
<path d="M3091 4039 c-259 -264 -318 -319 -335 -315 -72 21 -250 38 -336 32
-261 -16 -420 -82 -590 -243 -65 -61 -72 -65 -137 -75 -76 -12 -217 0 -335 29
-37 9 -71 13 -76 9 -29 -30 230 -150 366 -171 42 -7 43 -8 36 -38 -15 -72 -13
-71 -153 -64 -235 11 -412 62 -663 190 -65 33 -121 57 -125 53 -10 -10 111
-129 207 -202 86 -66 275 -165 385 -202 78 -26 227 -62 258 -62 55 0 57 -5 41
-107 l-5 -33 -78 0 c-148 0 -317 44 -493 127 -54 26 -101 43 -105 39 -9 -9 78
-97 157 -157 108 -82 242 -143 416 -188 23 -6 50 -11 61 -11 18 0 21 -9 26
-67 3 -38 3 -70 1 -72 -8 -8 -205 30 -284 55 -121 38 -121 24 -1 -65 92 -68
210 -131 308 -164 64 -21 78 -31 115 -77 124 -153 330 -264 591 -321 148 -33
394 -32 522 1 259 65 443 215 514 415 10 31 21 106 41 280 6 55 16 138 22 185
7 47 12 144 12 215 0 112 -3 138 -23 187 -39 99 -120 207 -215 284 l-38 32
339 253 c330 248 338 255 341 291 4 45 -32 88 -73 88 -19 0 -102 -62 -307
-227 -154 -126 -310 -252 -346 -280 -35 -29 -67 -53 -71 -53 -3 0 -37 15 -74
33 l-68 33 168 165 c93 90 226 218 296 283 112 105 127 123 127 152 0 37 -46
84 -83 84 -14 0 -118 -99 -336 -321z m-484 -410 c35 -6 63 -13 63 -15 0 -1
-23 -28 -52 -59 l-52 -55 -91 0 c-166 0 -283 -40 -375 -126 -263 -246 62 -624
535 -624 220 0 402 80 468 204 32 61 30 165 -3 231 -25 49 -94 128 -138 156
-22 14 -22 14 44 66 l67 53 29 -18 c56 -32 169 -161 202 -231 28 -60 31 -75
31 -161 -1 -83 -4 -102 -29 -154 -44 -89 -127 -166 -238 -219 -124 -60 -198
-78 -351 -84 -195 -9 -368 25 -536 103 -401 187 -507 508 -248 751 157 146
439 223 674 182z m316 -89 c25 -12 37 -30 20 -30 -5 0 -30 -21 -58 -45 -27
-25 -53 -45 -56 -45 -4 0 -34 10 -69 23 l-62 24 63 55 c69 61 68 61 162 18z
m-453 -129 c0 -16 -26 -31 -81 -47 -75 -23 -144 -59 -178 -95 -30 -31 -71
-108 -71 -132 0 -14 -19 -37 -32 -37 -16 0 -7 71 15 122 28 63 89 121 164 155
69 32 183 53 183 34z m142 -169 c-17 -15 -53 -34 -80 -41 -109 -31 -202 -115
-202 -184 0 -23 7 -31 35 -43 19 -7 57 -14 85 -14 98 0 174 58 234 177 14 29
36 57 47 64 21 11 22 10 15 -22 -9 -46 -49 -127 -85 -169 -16 -20 -53 -49 -82
-65 -49 -27 -63 -30 -146 -30 -101 0 -139 16 -157 68 -24 68 51 184 150 233
54 26 144 51 194 53 25 1 25 1 -8 -27z m368 -137 c0 -77 -98 -211 -180 -247
-79 -34 -93 -38 -147 -38 -67 0 -61 11 17 33 63 18 135 61 178 107 29 30 72
108 72 131 0 23 22 49 40 49 16 0 20 -7 20 -35z"/>
<path d="M1470 1400 l0 -320 24 -6 c13 -3 38 -4 57 -2 l34 3 3 323 2 322 -60
0 -60 0 0 -320z"/>
<path d="M1680 1395 l0 -325 55 0 55 0 1 83 c0 45 1 190 2 322 l1 240 -57 3
-57 3 0 -326z"/>
<path d="M535 1678 c-3 -18 -4 -161 -3 -318 l3 -285 60 0 60 0 3 113 3 112 32
0 c30 -1 36 -8 98 -113 l66 -112 63 -3 c35 -2 67 1 71 5 4 4 -26 59 -68 122
-62 94 -72 116 -59 123 35 20 75 60 90 92 23 50 21 149 -5 195 -43 77 -111
100 -291 101 l-117 0 -6 -32z m289 -107 c27 -29 30 -81 8 -117 -17 -26 -28
-32 -73 -37 -106 -13 -99 -19 -99 83 l0 90 73 0 c60 0 77 -4 91 -19z"/>
<path d="M1911 1613 c34 -54 77 -122 95 -150 19 -29 34 -57 34 -63 0 -8 -34
-63 -166 -265 -17 -27 -28 -53 -23 -56 16 -10 95 -10 121 0 13 5 31 22 39 38
37 75 102 174 111 171 5 -2 24 -30 42 -63 18 -33 44 -80 59 -105 l25 -45 66
-1 c37 -1 69 2 71 7 3 4 -37 76 -90 160 -52 83 -95 155 -95 160 0 5 42 76 94
159 l94 150 -72 0 -72 0 -46 -77 c-25 -43 -51 -88 -57 -100 -6 -13 -15 -23
-20 -23 -4 0 -13 10 -19 23 -22 43 -84 152 -94 165 -7 7 -37 12 -84 12 l-74 0
61 -97z"/>
<path d="M4255 1543 c-86 -17 -132 -55 -142 -118 -14 -85 25 -128 147 -159 80
-21 90 -26 96 -52 7 -29 -1 -43 -34 -55 -40 -15 -87 -3 -100 26 -10 22 -18 25
-66 25 l-55 0 9 -29 c13 -47 28 -68 64 -90 75 -47 189 -36 254 24 35 32 37 37
37 95 0 57 -3 64 -32 91 -18 16 -45 31 -60 35 -73 16 -137 41 -147 57 -18 28
5 52 52 55 34 3 46 -2 66 -22 18 -21 33 -26 70 -26 40 0 46 3 46 21 0 26 -17
59 -44 81 -29 25 -123 49 -161 41z"/>
<path d="M1145 1534 c-66 -17 -108 -51 -141 -114 -14 -26 -19 -56 -19 -120 0
-75 3 -91 28 -133 35 -60 89 -96 155 -104 148 -17 252 81 252 236 0 100 -31
162 -103 208 -40 25 -126 39 -172 27z m129 -133 c27 -27 29 -35 29 -100 0 -79
-16 -107 -74 -131 -34 -14 -78 -1 -110 34 -29 30 -27 153 2 190 42 54 103 56
153 7z"/>
<path d="M2611 1525 c-19 -8 -40 -23 -47 -33 -12 -15 -13 -14 -14 11 0 26 -1
27 -60 27 l-60 0 0 -310 0 -310 60 0 60 0 0 105 0 105 41 -27 c32 -21 52 -26
97 -26 62 0 91 11 135 52 38 35 53 65 67 136 10 50 9 71 -3 118 -18 70 -35 97
-82 132 -44 34 -141 44 -194 20z m108 -100 c53 -27 73 -135 38 -202 -38 -71
-146 -77 -188 -10 -16 26 -19 45 -17 101 3 62 7 71 36 97 37 33 85 38 131 14z"/>
<path d="M3134 1526 c-17 -8 -40 -27 -52 -42 l-21 -29 -1 38 0 37 -55 0 -55 0
0 -225 0 -224 35 -7 c19 -3 46 -3 59 0 24 6 25 7 28 145 3 123 5 143 24 168
18 23 30 28 73 31 l51 3 0 37 c0 83 -19 97 -86 68z"/>
<path d="M3372 1532 c-78 -24 -142 -126 -142 -226 0 -84 18 -135 66 -182 68
-69 179 -82 269 -31 36 20 85 77 85 98 0 5 -24 9 -52 9 -37 0 -61 -6 -78 -20
-38 -30 -102 -27 -140 8 -16 15 -31 38 -32 52 l-3 25 158 3 157 3 0 50 c0 72
-39 149 -92 184 -33 22 -56 29 -108 31 -36 2 -75 0 -88 -4z m129 -92 c19 -10
49 -59 49 -80 0 -6 -37 -10 -100 -10 -99 0 -100 0 -100 24 0 54 95 95 151 66z"/>
<path d="M3785 1524 c-47 -24 -62 -42 -75 -88 -23 -81 24 -141 130 -166 30 -8
67 -20 83 -27 36 -18 37 -56 1 -79 -34 -23 -95 -9 -109 24 -8 19 -17 22 -62
22 -47 0 -53 -2 -53 -20 0 -35 28 -77 67 -102 30 -18 52 -23 108 -23 87 0 140
25 172 81 56 98 6 172 -139 204 -54 12 -98 39 -98 60 0 20 34 40 66 40 24 0
43 -8 60 -25 19 -19 35 -25 69 -25 44 0 45 1 45 31 0 39 -53 93 -100 103 -57
11 -134 6 -165 -10z"/>
</g>
</svg>
